<?xml version="1.0" encoding="UTF-8"?>
<svg width="32px" height="32px" viewBox="0 0 32 32" version="1.1" xmlns="http://www.w3.org/2000/svg" xmlns:xlink="http://www.w3.org/1999/xlink">
    <title>dark-theme/standard/32x32/info-outlined</title>
    <g id="dark-theme/standard/32x32/info-outlined" stroke="none" stroke-width="1" fill="none" fill-rule="evenodd">
        <path d="M16,4 C22.627417,4 28,9.372583 28,16 C28,22.627417 22.627417,28 16,28 C9.372583,28 4,22.627417 4,16 C4,9.372583 9.372583,4 16,4 Z M16,5.4 C10.1457817,5.4 5.4,10.1457817 5.4,16 C5.4,21.8542183 10.1457817,26.6 16,26.6 C21.8542183,26.6 26.6,21.8542183 26.6,16 C26.6,10.1457817 21.8542183,5.4 16,5.4 Z M17.1663335,13 L17.1663335,23 L14.8909429,23 L14.8909429,13 L17.1663335,13 Z M16.0396245,8.31112671 C16.4675827,8.31112671 16.8176956,8.44377645 17.0899633,8.70907593 C17.3622309,8.97437541 17.4983647,9.30762736 17.4983647,9.70883179 C17.4983647,10.1084086 17.3622309,10.4412282 17.0899633,10.7072906 C16.8176956,10.9733531 16.4675827,11.1063843 16.0396245,11.1063843 C15.618075,11.1063843 15.2711919,10.9711151 14.9989751,10.7005768 C14.7267583,10.4300385 14.5906499,10.1000671 14.5906499,9.71066284 C14.5906499,9.30823771 14.7267583,8.97437541 14.9989751,8.70907593 C15.2711919,8.44377645 15.618075,8.31112671 16.0396245,8.31112671 Z" id="Icon" fill="#2A2A2A"></path>
    </g>
</svg>
