<?xml version="1.0" encoding="UTF-8"?>
<svg width="32px" height="32px" viewBox="0 0 32 32" version="1.1" xmlns="http://www.w3.org/2000/svg" xmlns:xlink="http://www.w3.org/1999/xlink">
    <title>dark-theme/standard/32x32/offline</title>
    <g id="dark-theme/standard/32x32/offline" stroke="none" stroke-width="1" fill="none" fill-rule="evenodd">
        <path d="M10.31,4.502 L29.8647984,24.017588 L28.5963144,25.2857143 L9.042,5.77 L10.31,4.502 Z M10.7416216,9.18454303 L11.959039,10.4029861 C11.7525038,10.6650027 11.5701385,10.9487969 11.4157912,11.2515523 L11.3229315,11.4433825 L10.8690923,12.4324306 L9.60142242,12.4440479 C7.44072667,12.5034131 5.71428571,14.2745938 5.71428571,16.4408863 C5.71428571,17.6869141 6.28684508,18.8344002 7.24443775,19.5869405 L7.48063224,19.7633531 C7.97663577,20.1557057 8.57524221,20.3893185 9.2141828,20.4321176 L9.42857143,20.4392727 L21.998,20.4383436 L23.6836481,22.1238001 C23.5060946,22.1434633 23.3256551,22.1535585 23.1428571,22.1535585 L9.42857143,22.1535585 C8.37230577,22.1535585 7.39478899,21.8164896 6.59777409,21.2440763 L6.41709806,21.1078495 C4.9547264,20.0726548 4,18.3682332 4,16.4408863 C4,13.3393395 6.47238331,10.8150858 9.55434009,10.7304088 L9.76484842,10.7284331 C10.0214311,10.1692647 10.3510962,9.65056261 10.7416216,9.18454303 Z M16,6.72934362 C19.3977474,6.72934362 22.218306,9.19988493 22.7623512,12.4421228 L23.1428571,12.4420158 C25.8253831,12.4420158 28,14.6160187 28,17.2977871 C28,18.3403533 27.6713395,19.3061785 27.1119465,20.0973622 L25.8715115,18.8576634 C26.1350543,18.3980463 26.2857143,17.865493 26.2857143,17.2977871 C26.2857143,15.618865 24.9680275,14.2473915 23.3102177,14.1606563 L23.1433392,14.1563014 L21.3118231,14.1568164 L21.0717017,12.7258125 C20.6596146,10.2699787 18.5209056,8.44362933 16,8.44362933 C15.8252841,8.44362933 15.6521711,8.45241274 15.4811484,8.46962271 L14.028027,7.01704335 C14.6525534,6.82989446 15.3145309,6.72934362 16,6.72934362 Z" id="Icon" fill="#DEDEDE"></path>
    </g>
</svg>